<?xml version="1.0" encoding="UTF-8" standalone="no"?>
<svg
   xmlns:dc="http://purl.org/dc/elements/1.1/"
   xmlns:cc="http://creativecommons.org/ns#"
   xmlns:rdf="http://www.w3.org/1999/02/22-rdf-syntax-ns#"
   xmlns:svg="http://www.w3.org/2000/svg"
   xmlns="http://www.w3.org/2000/svg"
   xmlns:sodipodi="http://sodipodi.sourceforge.net/DTD/sodipodi-0.dtd"
   xmlns:inkscape="http://www.inkscape.org/namespaces/inkscape"
   height="105.12938"
   width="248.49001"
   xml:space="preserve"
   viewBox="0 0 248.49001 105.12938"
   y="0px"
   x="0px"
   id="Layer_1"
   version="1.1"
   sodipodi:docname="portlandlogoWHITE.svg"
   inkscape:version="1.0.1 (3bc2e813f5, 2020-09-07)"><sodipodi:namedview
   pagecolor="#000000"
   bordercolor="#666666"
   borderopacity="1"
   objecttolerance="10"
   gridtolerance="10"
   guidetolerance="10"
   inkscape:pageopacity="0"
   inkscape:pageshadow="2"
   inkscape:window-width="1920"
   inkscape:window-height="1004"
   id="namedview1026"
   showgrid="false"
   inkscape:zoom="4.3633514"
   inkscape:cx="113.37947"
   inkscape:cy="70.188189"
   inkscape:window-x="0"
   inkscape:window-y="0"
   inkscape:window-maximized="1"
   inkscape:current-layer="layer7"
   inkscape:document-rotation="0"
   inkscape:pagecheckerboard="false"
   fit-margin-top="0"
   fit-margin-left="0"
   fit-margin-right="0"
   fit-margin-bottom="0" /><metadata
   id="metadata105"><rdf:RDF><cc:Work
       rdf:about=""><dc:format>image/svg+xml</dc:format><dc:type
         rdf:resource="http://purl.org/dc/dcmitype/StillImage" /><dc:title></dc:title></cc:Work></rdf:RDF></metadata><defs
   id="defs103" />
<style
   id="style2"
   type="text/css">
	.st0{fill-rule:evenodd;clip-rule:evenodd;fill:#B8BC9B;}
	.st1{fill-rule:evenodd;clip-rule:evenodd;fill:none;stroke:#FFFFFF;stroke-miterlimit:10;}
	.st2{fill-rule:evenodd;clip-rule:evenodd;fill:#FEFEFE;}
	.st3{fill:#BC141A;}
	.st4{fill-rule:evenodd;clip-rule:evenodd;fill:#FFFFFF;}
	.st5{fill:#FFFFFF;}
	.st6{fill-rule:evenodd;clip-rule:evenodd;fill:#BC141A;}
</style>
















































<g
   inkscape:groupmode="layer"
   id="layer3"
   inkscape:label="BORDER"
   style="display:inline"
   transform="translate(1,1.0445563)"><path
     id="path6"
     d="m 7.19,78.242278 c -4.13,-0.87 -6.69,-3.43 -6.69,-6.69 v -26.93 c 0,-3.49 2.85,-6.31 6.77,-6.7 l 64.59,-6.5 0.96,-1.58 c 2.75,-4.52 4.02,-4.85 8.21,-5.94 0.46,-0.12 0.95,-0.25 1.49,-0.39 l 8.85,-1.66 c 0.69,-0.17 1.61,-0.33 2.68,-0.52 2.35,-0.41 5.28,-0.93 7.25,-1.89 1.29,-0.63 2.01,-1.79 1.88,-3.04 -0.1,-0.97 -0.35,-2.08 -0.56,-3.05 -0.09,-0.38 -0.17,-0.74 -0.23,-1.04 -0.47,-3.3999998 0.65,-5.4299998 3.65,-6.6099998 0.57,-0.23 1.17,-0.44 1.79,-0.63 l 15.08,-4.55000005 15.07,4.55000005 c 0.62,0.19 1.21,0.39 1.79,0.63 2.99,1.18 4.12,3.21 3.65,6.5699998 -0.07,0.34 -0.14,0.68 -0.22,1.04 -0.21,0.94 -0.47,2.1 -0.57,3.1 -0.13,1.25 0.59,2.41 1.88,3.04 1.98,0.96 4.9,1.48 7.25,1.89 1.07,0.19 2,0.35 2.72,0.53 l 8.76,1.64 c 0.59,0.16 1.09,0.29 1.54,0.4 4.2,1.09 5.47,1.42 8.21,5.94 l 0.94,1.54 65.29,6.54 c 3.92,0.39 6.77,3.21 6.77,6.7 v 26.93 c 0,3.26 -2.56,5.83 -6.69,6.69 L 122.91,102.55228 Z"
     class="st1"
     style="display:inline;stroke-width:3;stroke-miterlimit:10;stroke-dasharray:none" /></g><g
   inkscape:groupmode="layer"
   id="layer2"
   inkscape:label="BACKGROUND"
   style="display:none"
   transform="translate(1,1.0445563)"><path
     id="path4"
     d="m 7.34,38.642278 64.94,-6.54 1.15,-1.88 c 2.88,-4.74 3.86,-4.55 9.27,-6.01 l 8.8,-1.65 c 2.33,-0.58 7.16,-1.03 10.12,-2.47 1.69,-0.82 2.42,-2.34 2.28,-3.76 -0.15,-1.41 -0.58,-3.08 -0.8,-4.16 -0.4,-2.9099998 0.4,-4.6899998 3.2,-5.7999998 0.51,-0.2 1.08,-0.41 1.74,-0.61 l 14.87,-4.49 14.86,4.49 c 0.65,0.2 1.23,0.4 1.74,0.61 2.8,1.11 3.61,2.89 3.2,5.7999998 -0.22,1.08 -0.66,2.75 -0.8,4.16 -0.15,1.42 0.58,2.93 2.28,3.76 2.96,1.45 7.79,1.89 10.12,2.47 l 8.8,1.65 c 5.42,1.46 6.39,1.27 9.27,6.01 l 1.12,1.85 65.64,6.57 c 3.35,0.34 6.12,2.69 6.12,5.99 v 26.93 c 0,3.29 -2.83,5.3 -6.12,5.99 L 122.9,101.82228 73.94,91.542278 l -66.6,-13.99 c -3.29,-0.69 -6.12,-2.69 -6.12,-5.99 v -26.93 c 0,-3.3 2.78,-5.66 6.12,-5.99 z"
     class="st0"
     style="display:inline;fill:#000000;fill-opacity:1;stroke:none;stroke-width:0;stroke-miterlimit:10;stroke-dasharray:none" /></g><g
   inkscape:groupmode="layer"
   id="layer1"
   inkscape:label="FOREGROUND"
   style="display:inline"
   transform="translate(1,1.0445563)"><g
     inkscape:groupmode="layer"
     id="layer4"
     inkscape:label="letterborders"
     style="display:none"><path
       id="path30"
       d="M 19.5,67.852278 H 9.93 v -23.84 h 17.31 c 2.88,0 4.7,0.56 6.1,1.87 1.43,1.33 2.01,3.01 2.01,5.8 v 2.12 c 0,2.81 -0.59,4.48 -2.02,5.78 -1.46,1.32 -3.22,1.85 -6.09,1.85 H 19.5 Z m -7.13,-2.44 h 4.69 v -6.42 h 10.18 c 2.57,0 3.64,-0.49 4.45,-1.22 0.75,-0.68 1.22,-1.58 1.22,-3.97 v -2.12 c 0,-2.39 -0.47,-3.31 -1.23,-4.02 -0.92,-0.86 -2.21,-1.21 -4.44,-1.21 H 12.37 Z m 14.18,-9.53 h -9.49 v -6.29 h 9.49 c 0.95,0 1.67,0.7 1.67,1.64 v 3.01 c 0,0.93 -0.72,1.64 -1.67,1.64 z m -7.05,-2.44 h 6.28 v -1.41 H 19.5 Z"
       class="st5"
       style="display:inline;fill:#ae2f3a;fill-opacity:1" /><path
       id="path34"
       d="m 55.63,67.852278 h -9.2 c -2.83,0 -4.65,-0.55 -6.09,-1.86 -1.44,-1.3 -2.02,-2.97 -2.02,-5.78 v -8.54 c 0,-2.79 0.58,-4.47 2.01,-5.8 1.4,-1.31 3.23,-1.87 6.11,-1.87 h 9.2 c 2.88,0 4.7,0.56 6.11,1.87 1.42,1.33 2.01,3.01 2.01,5.8 v 8.54 c 0,2.81 -0.59,4.49 -2.02,5.78 -1.46,1.3 -3.28,1.86 -6.11,1.86 z m -9.2,-21.4 c -2.23,0 -3.52,0.35 -4.44,1.21 -0.76,0.71 -1.23,1.63 -1.23,4.02 v 8.54 c 0,2.39 0.46,3.29 1.22,3.97 0.82,0.74 1.88,1.23 4.46,1.23 h 9.2 c 2.57,0 3.64,-0.49 4.46,-1.23 0.75,-0.68 1.22,-1.58 1.22,-3.97 v -8.54 c 0,-2.39 -0.47,-3.31 -1.23,-4.02 -0.92,-0.86 -2.21,-1.21 -4.44,-1.21 z m 8.51,15.85 h -7.82 c -0.95,0 -1.67,-0.7 -1.67,-1.64 v -9.43 c 0,-0.93 0.72,-1.64 1.67,-1.64 h 7.82 c 0.95,0 1.67,0.7 1.67,1.64 v 9.43 c 0,0.93 -0.72,1.64 -1.67,1.64 z m -7.05,-2.44 h 6.28 v -7.83 h -6.28 z"
       class="st5"
       style="display:inline;fill:#faedee;fill-opacity:1" /><path
       id="path38"
       d="M 94.69,67.852278 H 83.78 l -4.82,-6.97 h -2.04 v 6.97 h -9.57 v -23.84 h 17.31 c 2.88,0 4.7,0.56 6.11,1.87 1.42,1.33 2,3 2,5.77 v 1.6 c 0,3.83 -1.09,5.95 -3.8,7.04 z m -9.63,-2.44 h 4.73 l -4.98,-6.56 1.87,-0.4 c 2.53,-0.55 3.65,-1.43 3.65,-5.19 v -1.6 c 0,-2.36 -0.47,-3.28 -1.23,-3.99 -0.92,-0.86 -2.21,-1.21 -4.44,-1.21 H 69.79 v 18.96 h 4.7 v -6.97 h 5.75 z m -1.09,-9.89 h -9.49 v -5.94 h 9.49 c 0.95,0 1.67,0.7 1.67,1.64 v 2.66 c 0,0.94 -0.72,1.64 -1.67,1.64 z m -7.05,-2.43 h 6.28 v -1.06 h -6.28 z"
       class="st5"
       style="display:inline;fill:#faedee;fill-opacity:1" /><path
       id="path42"
       d="m 113.47,67.852278 h -9.57 v -15.85 h -8.17 v -7.99 h 25.87 v 7.99 h -8.13 z m -7.14,-2.44 h 4.69 v -15.85 h 8.13 v -3.11 H 98.16 v 3.11 h 8.17 z"
       class="st5"
       style="display:inline;fill:#faedee;fill-opacity:1" /><path
       id="path46"
       d="m 146.55,67.882278 -21.47,-0.04 v -23.84 h 9.56 v 15.85 h 11.96 z m -19.03,-2.47 16.61,0.03 0.02,-3.15 H 132.2 v -15.85 h -4.68 z"
       class="st5"
       style="display:inline;fill:#faedee;fill-opacity:1" /><path
       id="path50"
       d="m 180.25,67.852278 h -10.77 l -1.41,-3.21 h -7.54 l -1.41,3.21 h -10.77 l 11.63,-23.91 h 8.66 z m -9.18,-2.44 h 5.29 l -9.25,-19.03 h -5.61 l -9.25,19.03 h 5.28 l 1.41,-3.21 h 10.72 z m -2.61,-6.32 h -8.3 l 3.02,-7.48 h 2.26 z m -4.69,-2.44 h 1.07 l -0.54,-1.33 z"
       class="st5"
       style="display:inline;fill:#faedee;fill-opacity:1" /><path
       id="path58"
       d="m 207.65,67.842278 -8.94,-0.01 -6.91,-8.97 -0.01,8.97 h -9.53 l -0.02,-23.86 8.9,0.02 6.92,8.7 v -8.74 h 9.58 z m -22.96,-2.44 h 4.66 l 0.01,-10.11 2.19,-0.74 8.36,10.85 5.3,0.01 -0.01,-19 h -4.71 v 9.79 l -2.17,0.76 -8.36,-10.52 -5.28,-0.02 z"
       class="st5"
       style="display:inline;fill:#faedee;fill-opacity:1" /><path
       id="path54"
       d="m 229.08,67.852278 h -17.31 v -23.84 h 17.31 c 2.87,0 4.7,0.56 6.11,1.87 1.43,1.33 2.01,3.01 2.01,5.8 v 8.54 c 0,2.81 -0.59,4.49 -2.02,5.78 -1.47,1.31 -3.24,1.85 -6.1,1.85 z m -14.88,-2.44 h 14.87 c 2.57,0 3.64,-0.49 4.46,-1.23 0.75,-0.68 1.22,-1.58 1.22,-3.97 v -8.54 c 0,-2.39 -0.47,-3.31 -1.23,-4.02 -0.93,-0.86 -2.21,-1.21 -4.44,-1.21 h -14.87 v 18.97 z m 14.19,-3.11 h -9.49 v -12.71 h 9.49 c 0.95,0 1.67,0.7 1.67,1.64 v 9.43 c 0,0.93 -0.72,1.64 -1.67,1.64 z m -7.05,-2.44 h 6.28 v -7.83 h -6.28 z"
       class="st5"
       style="display:inline;fill:#faedee;fill-opacity:1" /></g><g
     inkscape:groupmode="layer"
     id="layer5"
     inkscape:label="letter-inners"
     style="display:none"><path
       id="path60"
       d="m 27.22,45.182278 c 2.55,0 4.1,0.45 5.27,1.54 1.17,1.09 1.62,2.47 1.62,4.91 v 2.12 c 0,2.44 -0.45,3.82 -1.62,4.88 -1.21,1.09 -2.72,1.54 -5.27,1.54 h -8.96 v 6.42 h -7.13 v -21.4 h 16.09 z m -0.69,9.43 c 0.27,0 0.45,-0.16 0.45,-0.42 v -3.02 c 0,-0.26 -0.17,-0.42 -0.45,-0.42 h -8.27 v 3.85 h 8.27 z"
       class="st6"
       style="display:inline;fill:#faedee;fill-opacity:1" /><path
       id="path62"
       d="m 62.5,60.162278 c 0,2.44 -0.45,3.82 -1.62,4.88 -1.21,1.09 -2.72,1.54 -5.27,1.54 h -9.2 c -2.55,0 -4.07,-0.45 -5.27,-1.54 -1.17,-1.06 -1.62,-2.44 -1.62,-4.88 v -8.53 c 0,-2.44 0.45,-3.82 1.62,-4.91 1.17,-1.09 2.72,-1.54 5.27,-1.54 h 9.2 c 2.55,0 4.1,0.45 5.27,1.54 1.17,1.09 1.62,2.47 1.62,4.91 z m -15.4,-9.4 c -0.28,0 -0.45,0.16 -0.45,0.42 v 9.43 c 0,0.26 0.17,0.42 0.45,0.42 h 7.82 c 0.28,0 0.45,-0.16 0.45,-0.42 v -9.43 c 0,-0.26 -0.17,-0.42 -0.45,-0.42 z"
       class="st6"
       style="display:inline;fill:#faedee;fill-opacity:1" /><path
       id="path64"
       d="m 84.64,45.182278 c 2.55,0 4.1,0.45 5.27,1.54 1.17,1.09 1.62,2.47 1.62,4.88 v 1.61 c 0,4.01 -1.21,5.65 -4.62,6.39 l 5.31,6.99 H 84.4 l -4.83,-6.96 h -3.89 v 6.96 h -7.13 v -21.4 h 16.09 z m -0.69,9.08 c 0.28,0 0.45,-0.16 0.45,-0.42 v -2.66 c 0,-0.26 -0.17,-0.42 -0.45,-0.42 h -8.27 v 3.5 z"
       class="st6"
       style="display:inline;fill:#faedee;fill-opacity:1" /><polygon
       transform="translate(-272.62,-254.02772)"
       id="polygon66"
       points="392.98,304.76 384.85,304.76 384.85,320.61 377.71,320.61 377.71,304.76 369.55,304.76 369.55,299.21 392.98,299.21 "
       class="st6"
       style="display:inline;fill:#faedee;fill-opacity:1" /><polygon
       transform="translate(-272.62,-254.02772)"
       id="polygon68"
       points="406.02,299.21 406.02,315.06 417.97,315.06 417.94,320.64 398.9,320.61 398.9,299.21 "
       class="st6"
       style="display:inline;fill:#faedee;fill-opacity:1" /><path
       id="path70"
       d="m 159.71,63.372278 -1.41,3.21 h -8.03 l 10.44,-21.47 h 7.13 l 10.44,21.47 h -8.03 l -1.41,-3.21 z m 2.23,-5.55 h 4.69 l -2.34,-5.81 z"
       class="st6"
       style="display:inline;fill:#faedee;fill-opacity:1" /><polygon
       transform="translate(-272.62,-254.02772)"
       id="polygon74"
       points="479.01,299.17 479.02,320.6 471.9,320.6 463.18,309.27 463.16,320.6 456.07,320.6 456.06,299.17 463.14,299.19 471.87,310.18 471.87,299.17 "
       class="st6"
       style="display:inline;fill:#faedee;fill-opacity:1" /><path
       id="path72"
       d="m 229.05,45.182278 c 2.55,0 4.1,0.45 5.27,1.54 1.17,1.09 1.62,2.47 1.62,4.91 v 8.53 c 0,2.44 -0.45,3.82 -1.62,4.88 -1.21,1.09 -2.72,1.54 -5.27,1.54 h -16.09 v -21.4 z m -0.68,15.85 c 0.28,0 0.45,-0.16 0.45,-0.42 v -9.43 c 0,-0.26 -0.17,-0.42 -0.45,-0.42 h -8.27 v 10.27 z"
       class="st6"
       style="display:inline;fill:#faedee;fill-opacity:1" /></g><g
     inkscape:groupmode="layer"
     id="layer6"
     inkscape:label="other-letters"
     style="display:inline"><path
       id="path28"
       d="m 27.24,45.232278 c 2.55,0 4.1,0.45 5.27,1.54 1.17,1.09 1.62,2.47 1.62,4.91 v 2.12 c 0,2.44 -0.45,3.82 -1.62,4.88 -1.21,1.09 -2.72,1.54 -5.27,1.54 h -8.96 v 6.42 h -7.13 v -21.4 h 16.09 z m -0.69,9.43 c 0.28,0 0.45,-0.16 0.45,-0.42 v -3.01 c 0,-0.26 -0.17,-0.42 -0.45,-0.42 h -8.27 v 3.85 z"
       class="st4"
       style="display:inline;fill:#ffffff;fill-opacity:1" /><path
       id="path32"
       d="m 62.52,60.212278 c 0,2.44 -0.45,3.82 -1.62,4.88 -1.21,1.09 -2.72,1.54 -5.27,1.54 h -9.2 c -2.55,0 -4.07,-0.45 -5.27,-1.54 -1.17,-1.06 -1.62,-2.44 -1.62,-4.88 v -8.54 c 0,-2.44 0.45,-3.82 1.62,-4.91 1.17,-1.09 2.72,-1.54 5.27,-1.54 h 9.2 c 2.55,0 4.1,0.45 5.27,1.54 1.17,1.09 1.62,2.47 1.62,4.91 z m -15.4,-9.4 c -0.27,0 -0.45,0.16 -0.45,0.42 v 9.43 c 0,0.26 0.17,0.42 0.45,0.42 h 7.82 c 0.27,0 0.45,-0.16 0.45,-0.42 v -9.43 c 0,-0.26 -0.17,-0.42 -0.45,-0.42 z"
       class="st4"
       style="display:inline;fill:#ffffff;fill-opacity:1" /><path
       id="path36"
       d="m 84.66,45.232278 c 2.55,0 4.1,0.45 5.27,1.54 1.17,1.09 1.62,2.47 1.62,4.88 v 1.6 c 0,4.01 -1.21,5.65 -4.62,6.38 l 5.31,7 h -7.82 l -4.83,-6.97 H 75.7 v 6.97 h -7.13 v -21.4 z m -0.69,9.08 c 0.28,0 0.45,-0.16 0.45,-0.42 v -2.66 c 0,-0.26 -0.17,-0.42 -0.45,-0.42 H 75.7 v 3.5 z"
       class="st4"
       style="display:inline;fill:#ffffff;fill-opacity:1" /><polygon
       transform="translate(-272.62,-254.02772)"
       id="polygon40"
       points="369.57,299.26 393,299.26 393,304.81 384.87,304.81 384.87,320.66 377.73,320.66 377.73,304.81 369.57,304.81 "
       class="st4"
       style="display:inline;fill:#ffffff;fill-opacity:1" /><polygon
       transform="translate(-272.62,-254.02772)"
       id="polygon44"
       points="417.99,315.11 417.96,320.69 398.92,320.66 398.92,299.26 406.04,299.26 406.04,315.11 "
       class="st4"
       style="display:inline;fill:#ffffff;fill-opacity:1" /><path
       id="path48"
       d="m 159.73,63.422278 -1.41,3.21 h -8.03 l 10.44,-21.47 h 7.13 l 10.44,21.47 h -8.03 l -1.41,-3.21 z m 2.24,-5.55 h 4.69 l -2.35,-5.81 z"
       class="st4"
       style="display:inline;fill:#ffffff;fill-opacity:1" /><path
       id="path78"
       d="m 90.13,78.742278 v -0.03 c 0,-3.17 2.44,-5.66 5.74,-5.66 2.22,0 3.65,0.93 4.62,2.27 l -2.27,1.76 c -0.62,-0.78 -1.34,-1.27 -2.38,-1.27 -1.52,0 -2.6,1.29 -2.6,2.88 v 0.03 c 0,1.63 1.07,2.91 2.6,2.91 1.13,0 1.8,-0.53 2.46,-1.32 l 2.27,1.62 c -1.03,1.41 -2.41,2.46 -4.82,2.46 -3.12,-0.02 -5.62,-2.4 -5.62,-5.65 z"
       class="st3"
       style="display:inline;fill:#ffffff;fill-opacity:1" /><path
       id="path80"
       d="m 104.57,73.272278 h 5.15 c 1.66,0 2.81,0.44 3.54,1.18 0.64,0.62 0.96,1.46 0.96,2.53 v 0.03 c 0,1.66 -0.89,2.77 -2.24,3.34 l 2.6,3.79 h -3.48 l -2.19,-3.29 h -0.03 -1.29 v 3.29 h -3.02 z m 5,5.22 c 1.03,0 1.62,-0.5 1.62,-1.29 v -0.03 c 0,-0.86 -0.62,-1.29 -1.63,-1.29 h -1.97 v 2.61 z"
       class="st3"
       style="display:inline;fill:#ffffff;fill-opacity:1" /><path
       id="path82"
       d="m 122.04,73.192278 h 2.91 l 4.63,10.96 h -3.24 l -0.79,-1.94 h -4.2 l -0.78,1.94 h -3.17 z m 2.64,6.67 -1.21,-3.09 -1.23,3.09 z"
       class="st3"
       style="display:inline;fill:#ffffff;fill-opacity:1" /><path
       id="path84"
       d="m 133.36,73.272278 h 8.71 v 2.64 h -5.69 v 1.85 h 5.15 v 2.5 h -5.15 v 3.89 h -3.02 z"
       class="st3"
       style="display:inline;fill:#ffffff;fill-opacity:1" /><path
       id="path86"
       d="m 148.81,75.912278 h -3.26 v -2.64 h 9.55 v 2.64 h -3.27 v 8.24 h -3.02 z"
       class="st3"
       style="display:inline;fill:#ffffff;fill-opacity:1" /><path
       id="path52"
       d="m 229.08,45.232278 c 2.55,0 4.1,0.45 5.27,1.54 1.17,1.09 1.62,2.47 1.62,4.91 v 8.54 c 0,2.44 -0.45,3.82 -1.62,4.88 -1.21,1.09 -2.72,1.54 -5.27,1.54 h -16.09 v -21.4 h 16.09 z m -0.69,15.85 c 0.27,0 0.45,-0.16 0.45,-0.42 v -9.43 c 0,-0.26 -0.17,-0.42 -0.45,-0.42 h -8.27 v 10.27 z"
       class="st4"
       style="display:inline;fill:#ffffff;fill-opacity:1" /><polygon
       transform="translate(-272.62,-254.02772)"
       id="polygon56"
       points="463.19,320.65 456.09,320.65 456.08,299.22 463.17,299.24 471.89,310.22 471.89,299.21 479.03,299.21 479.04,320.65 471.92,320.65 463.2,309.32 "
       class="st4"
       style="display:inline;fill:#ffffff;fill-opacity:1" /></g><g
     inkscape:groupmode="layer"
     id="layer7"
     inkscape:label="BEER"><path
       id="path14"
       d="m 122.93,39.812278 h -0.04 c -2.16,0 -4.01,-0.13 -5.1,-0.35 -1.26,-0.25 -1.57,-1.12 -1.69,-1.85 -0.92,-5.45 -1.62,-11.09 -2.3,-16.54 l -0.08,-0.7 c -0.17,-1.38 -0.36,-2.75 -0.55,-4.12 -0.18,-1.3 -0.36,-2.61 -0.52,-3.93 -0.21,-1.63 0.44,-2.02 0.84,-2.11 0.27,-0.06 0.38,-0.1 0.45,-0.17 0.19,-0.6699998 0.67,-1.2099998 1.36,-1.5299998 0.48,-0.22 1.05,-0.3 1.6,-0.37 l 0.18,-0.02 c 0.61,-0.09 1.01,-0.19 1.42,-0.48 0.64,-0.46 0.88,-0.5 1.45,-0.5 0.1,0 0.21,0 0.35,-0.01 0.55,-0.02 1.06,-0.26 1.6,-0.51 l 0.35,-0.16 c 1.15,-0.51 1.98,-0.54 3.06,-0.13 l 0.2,0.08 c 0.33,0.13 0.65,0.25 0.91,0.28 1.33,0.15 1.7,0.54 2.34,1.35 l 0.2,0.25 c 0.11,0.13 0.19,0.19 0.55,0.2 0.6,0.02 0.95,0.12 1.5,0.41 0.48,0.25 1.03,0.6 1.41,0.89 0.82,0.6199998 0.85,0.8299998 0.74,1.9799998 -0.38,2.88 -0.73,5.75 -1.09,8.63 -0.69,5.66 -1.41,11.52 -2.37,17.2 -0.12,0.73 -0.43,1.6 -1.69,1.85 -1.1,0.24 -2.95,0.36 -5.08,0.36 z"
       class="st3"
       style="display:inline" /><path
       id="path16"
       d="m 124.51,10.752278 c 0.51,0.08 0.93,0.27 0.77,0.69 -0.17,0.01 -0.29,0.01 -0.37,0.01 -0.34,-0.01 -0.64,0 -0.87,0.3 -0.3,0.38 -0.31,1.05 -0.27,1.73 0.05,0.86 0.04,0.97 0.8,1.01 2.16,0.11 3.93,0.1 5.8,-0.08 0.63,-0.06 0.88,0 1.03,-0.71 0.08,-0.38 0.12,-0.93 0.19,-1.53 0.08,-0.68 -0.17,-0.66 -0.81,-0.67 -1.2,-0.02 -2.84,-0.08 -3.76,-0.12 -0.34,-0.57 0.07,-0.83 0.58,-0.85 0.47,-0.03 3.02,0.26 3.28,-0.02 0.02,-0.38 -0.47,-0.6699998 -0.76,-0.7099998 -0.46,-0.08 -1,-0.04 -1.47,-0.12 -0.84,-0.13 -0.79,-0.49 -1.21,-1.08 -0.35,-0.5 -1.38,-0.87 -2.24,-1.09 -1.54,-0.39 -2.17,-0.02 -3.49,0.84 -0.47,0.31 -0.85,0.29 -1.35,0.04 -1.52,-0.2 -1.51,0.59 -2.31,0.82 -0.36,0.11 -0.78,0.09 -1.17,0.17 -0.54,0.1 -1.05,0.28 -1.29,0.7499998 -0.15,0.3 -0.25,0.35 0.12,0.48 0.32,0.11 0.63,0.1 1.01,0.14 1.76,0.1 1,6.53 1.9,8.31 0.26,0.51 0.56,0.95 0.88,1.23 0.57,0.5 1.01,0.39 1.45,-0.01 0.38,-0.34 0.69,-0.77 0.92,-1.22 0.71,-1.4 0.71,-3.12 0.83,-4.69 -0.09,-1.93 -0.25,-3.65 1.81,-3.62 z"
       class="st4"
       style="display:inline" /><path
       id="path18"
       d="m 119.63,24.552278 c 0.2,0.73 1.27,0.9 1.38,-0.16 0.06,-0.57 0.2,-1.08 0.16,-1.65 -0.07,-0.97 -1.59,-0.94 -1.77,-0.06 -0.12,0.56 0.1,1.39 0.23,1.87 z"
       class="st4"
       style="display:inline" /><path
       id="path20"
       d="m 125.26,38.452278 c 0.97,-0.02 1.95,-0.11 2.5,-0.39 0.49,-0.25 0.56,-0.7 0.6,-1.45 -1.37,0 -3.59,0 -5.44,0 -1.84,0 -4.07,0 -5.44,0 0.04,0.74 0.11,1.19 0.6,1.44 0.64,0.33 1.83,0.4 2.94,0.4 1.41,0.01 2.84,0.03 4.24,0 z"
       class="st4"
       style="display:inline" /><path
       id="path22"
       d="m 130.22,15.702278 c 0.19,-0.01 0.34,0.04 0.32,0.18 l -2.4,17.66 c -0.07,0.59 0.05,0.85 -0.61,1.11 -0.29,0.11 -1.37,0.42 -2.05,0.5 1.54,-0.78 1.54,-0.73 1.67,-1.95 l 1.4,-13.72 0.32,-3.48 c 0.02,-0.33 1.07,-0.29 1.35,-0.3 z"
       class="st4"
       style="display:inline" /><path
       id="path24"
       d="m 126.45,18.552278 -1.14,13.18 c -0.03,0.34 -0.05,0.67 -0.08,1.01 -0.02,0.18 -0.05,0.34 -0.19,0.52 l -0.23,0.3 0.04,-0.63 1.17,-16.6 c 0.03,-0.4 -0.01,-0.55 0.41,-0.58 0.25,-0.02 0.28,0.08 0.26,0.24 -0.1,0.85 -0.17,1.71 -0.24,2.56 z"
       class="st4"
       style="display:inline" /><path
       id="path26"
       d="m 115.86,11.492278 c -0.45,-0.04 -0.84,-0.02 -1.27,-0.06 -0.42,-0.04 -0.61,0.15 -0.56,0.54 0.04,0.29 0.1,1.15 0.2,1.66 0.08,0.42 0.16,0.54 0.58,0.61 0.45,0.07 1.11,0.09 1.58,0.06 0.41,-0.03 0.49,-0.07 0.51,-0.53 0.02,-0.49 0.01,-1 -0.07,-1.49 -0.03,-0.19 -0.08,-0.35 -0.13,-0.43 -0.13,-0.25 -0.48,-0.32 -0.84,-0.36 z"
       class="st4"
       style="display:inline" /></g><g
     inkscape:groupmode="layer"
     id="layer8"
     inkscape:label="WINGS"><polygon
       transform="translate(-272.62,-254.02772)"
       id="polygon10"
       points="356.28,283.23 382.96,285.12 382.96,286.54 384.72,286.54 384.72,279.64 382.96,279.64 382.96,281.26 "
       class="st2"
       style="display:inline" /><polygon
       transform="translate(-272.62,-254.02772)"
       id="polygon94"
       points="288.13,328.62 293.13,329.55 359.82,329.56 359.82,328.62 "
       class="st5"
       style="display:inline;fill:#ffffff;fill-opacity:1" /><polygon
       transform="translate(-272.62,-254.02772)"
       id="polygon96"
       points="302.55,331.47 310.1,332.99 359.82,332.98 359.82,331.49 "
       class="st5"
       style="display:inline;fill:#ffffff;fill-opacity:1" /><polygon
       transform="translate(-272.62,-254.02772)"
       id="polygon98"
       points="359.82,334.96 320.05,335 324.55,335.89 324.62,335.88 359.82,335.89 "
       class="st5"
       style="display:inline;fill:#ffffff;fill-opacity:1" /><polygon
       transform="translate(-272.62,-254.02772)"
       id="polygon88"
       points="497.83,329.56 502.83,328.63 430.51,328.63 430.51,329.57 "
       class="st5"
       style="display:inline;fill:#ffffff;fill-opacity:1" /><polygon
       transform="translate(-272.62,-254.02772)"
       id="polygon90"
       points="480.86,333 488.41,331.48 430.51,331.5 430.51,332.99 "
       class="st5"
       style="display:inline;fill:#ffffff;fill-opacity:1" /><polygon
       transform="translate(-272.62,-254.02772)"
       id="polygon92"
       points="430.51,335.9 466.35,335.89 466.41,335.9 470.91,335.01 430.51,334.96 "
       class="st5"
       style="display:inline;fill:#ffffff;fill-opacity:1" /><polygon
       transform="translate(-272.62,-254.02772)"
       id="polygon76"
       points="395.48,349.87 412.96,345.92 412.95,343.91 377.93,343.88 377.93,345.96 "
       class="st4"
       style="display:inline" /><polygon
       transform="translate(-272.62,-254.02772)"
       id="polygon12"
       points="408.26,279.48 406.49,279.48 406.49,286.38 408.26,286.38 408.26,284.96 434.93,283.07 408.26,281.09 "
       class="st2"
       style="display:inline" /></g></g></svg>
