<?xml version="1.0" encoding="UTF-8" standalone="no"?>
<svg
   xmlns:dc="http://purl.org/dc/elements/1.1/"
   xmlns:cc="http://creativecommons.org/ns#"
   xmlns:rdf="http://www.w3.org/1999/02/22-rdf-syntax-ns#"
   xmlns:svg="http://www.w3.org/2000/svg"
   xmlns="http://www.w3.org/2000/svg"
   xmlns:xlink="http://www.w3.org/1999/xlink"
   xmlns:sodipodi="http://sodipodi.sourceforge.net/DTD/sodipodi-0.dtd"
   xmlns:inkscape="http://www.inkscape.org/namespaces/inkscape"
   inkscape:version="1.0 (4035a4fb49, 2020-05-01)"
   sodipodi:docname="smileyfaceColor2.svg"
   width="350"
   height="350"
   viewBox="0 0 92.604164 92.604164"
   version="1.1"
   id="svg8">
  <sodipodi:namedview
     inkscape:current-layer="layer4"
     inkscape:window-maximized="1"
     inkscape:window-y="-8"
     inkscape:window-x="-8"
     inkscape:cy="224.32911"
     inkscape:cx="223.84422"
     inkscape:zoom="2.1885539"
     units="px"
     inkscape:guide-bbox="true"
     showguides="true"
     showgrid="false"
     id="namedview21"
     inkscape:window-height="1017"
     inkscape:window-width="1920"
     inkscape:pageshadow="2"
     inkscape:pageopacity="0"
     guidetolerance="10"
     gridtolerance="10"
     objecttolerance="10"
     borderopacity="1"
     bordercolor="#666666"
     pagecolor="#ffffff">
    <sodipodi:guide
       id="guide846"
       orientation="0,-1"
       position="43.768352,46.44223" />
    <sodipodi:guide
       id="guide848"
       orientation="1,0"
       position="46.161934,96.365507" />
  </sodipodi:namedview>
  <defs
     id="defs2">
    <linearGradient
       id="linearGradient905">
      <stop
         style="stop-color:#fac825;stop-opacity:1;"
         offset="0"
         id="stop899" />
      <stop
         id="stop901"
         offset="0.46038553"
         style="stop-color:#fac825;stop-opacity:0.25125629" />
      <stop
         style="stop-color:#fac825;stop-opacity:0"
         offset="1"
         id="stop903" />
    </linearGradient>
    <linearGradient
       id="linearGradient895">
      <stop
         id="stop891"
         offset="0"
         style="stop-color:#fac825;stop-opacity:0.72361809" />
      <stop
         style="stop-color:#fac825;stop-opacity:0.6683417"
         offset="0.68583113"
         id="stop897" />
      <stop
         id="stop893"
         offset="1"
         style="stop-color:#fac825;stop-opacity:0" />
    </linearGradient>
    <radialGradient
       xlink:href="#linearGradient895"
       id="radialGradient874"
       cx="54.779514"
       cy="47.424225"
       fx="54.779514"
       fy="47.424225"
       r="37.776001"
       gradientUnits="userSpaceOnUse"
       gradientTransform="matrix(0.92604356,0.00227389,-0.00227373,0.92598501,4.4186712,4.4477929)" />
    <linearGradient
       xlink:href="#linearGradient905"
       id="linearGradient889"
       x1="54.76413"
       y1="71.837761"
       x2="54.511303"
       y2="22.466795"
       gradientUnits="userSpaceOnUse" />
  </defs>
  <metadata
     id="metadata5">
    <rdf:RDF>
      <cc:Work
         rdf:about="">
        <dc:format>image/svg+xml</dc:format>
        <dc:type
           rdf:resource="http://purl.org/dc/dcmitype/StillImage" />
        <dc:title></dc:title>
      </cc:Work>
    </rdf:RDF>
  </metadata>
  <g
     inkscape:label="Layer 1"
     id="layer4"
     inkscape:groupmode="layer">
    <g
       transform="translate(-8.42738,-0.93217587)"
       id="g863">
      <g
         style="display:inline"
         id="layer2">
        <circle
           r="34.933544"
           cy="48.486477"
           cx="55.039051"
           id="path20"
           style="font-variation-settings:'wght' 400;fill:url(#radialGradient874);fill-opacity:1;stroke:none;stroke-width:0.168533;stroke-linecap:round;stroke-linejoin:round;stroke-miterlimit:4;stroke-dasharray:none" />
      </g>
      <g
         id="layer3">
        <circle
           r="24.650328"
           cy="47.106647"
           cx="54.592091"
           id="path881"
           style="font-variation-settings:'wght' 400;fill:url(#linearGradient889);fill-opacity:1;stroke:none;stroke-width:0.213;stroke-linecap:round;stroke-linejoin:round;stroke-miterlimit:4;stroke-dasharray:none" />
      </g>
      <g
         transform="translate(-21.07512,-24.115216)"
         id="layer1">
        <path
           id="path26-3"
           d="m 73.117567,96.186748 c -14.12339,-1.44826 -24.28928,-14.43865 -22.25834,-28.442607 2.024,-13.956168 15.08667,-23.506197 28.94701,-21.162976 10.18388,1.721684 18.327223,9.608602 20.364643,19.723407 0.34336,1.629698 0.50314,3.417635 0.50569,4.953234 -0.009,1.475752 -0.13146,3.016822 -0.38954,4.445002 -1.838814,10.04664 -9.546033,17.97768 -19.507123,20.07361 -2.01855,0.42472 -5.63392,0.61833 -7.66234,0.41033 z m 5.715,-0.61911 C 93.087087,93.569898 102.47801,80.240388 99.571849,66.130274 97.96113,58.309852 92.214617,51.51287 84.691657,48.529964 c -6.83068,-2.708409 -14.81429,-2.158666 -21.12298,1.454505 -16.25954,9.312313 -16.54826,32.613239 -0.52399,42.288699 4.62488,2.7925 10.54897,4.02868 15.78788,3.29447 z m -4.27566,-6.45533 c -8.61873,-0.69648 -15.54907,-7.04274 -16.56219,-15.16633 -0.12187,-0.9772 -0.19942,-1.04747 -0.77126,-0.69882 -0.77847,0.47463 -1.60126,-0.14428 -0.9962,-0.74935 0.86707,-0.86706 4.10958,-1.054237 4.36422,-0.25192 0.15773,0.49694 -0.25942,0.78994 -1.04469,0.7338 l -0.39921,-0.0285 0.0108,0.60042 c 0.0335,1.86854 1.03527,4.6645 2.43911,6.80791 6.27966,9.58794 20.38012,10.23591 27.5911,1.26792 1.89001,-2.35052 3.29915,-5.78884 3.38233,-8.25292 l 0.02,-0.59267 -0.67733,-0.0213 c -0.90961,-0.0286 -1.01996,-0.0626 -1.13938,-0.35092 -0.48436,-1.169365 3.44706,-1.174989 4.43042,-0.006 0.47638,0.56615 -0.33995,1.09424 -1.03576,0.67004 -0.35345,-0.21549 -0.32322,-0.25921 -0.43332,0.62673 -1.07737,8.66998 -8.43056,15.1856 -17.3933,15.4121 -0.7491,0.0189 -1.5525,0.019 -1.78533,1.7e-4 z M 68.714897,68.69423 c -2.5192,-1.585485 -2.81055,-11.165896 -0.42003,-13.811925 2.63745,-2.91934 4.81344,5.769913 2.89885,11.575841 -0.61424,1.862693 -1.62433,2.773863 -2.47882,2.236084 z m 13.51924,-0.106308 c -1.98537,-1.210429 -2.72946,-8.07054 -1.30835,-12.062115 1.69547,-4.762159 4.54067,-1.704228 4.52965,4.868334 -0.008,4.685191 -1.57942,8.194798 -3.2213,7.193781 z"
           style="fill:#333333;fill-opacity:1;stroke-width:0.0846667" />
      </g>
    </g>
  </g>
</svg>
