<?xml version="1.0" encoding="UTF-8" standalone="no"?>
<svg
   xmlns:dc="http://purl.org/dc/elements/1.1/"
   xmlns:cc="http://creativecommons.org/ns#"
   xmlns:rdf="http://www.w3.org/1999/02/22-rdf-syntax-ns#"
   xmlns:svg="http://www.w3.org/2000/svg"
   xmlns="http://www.w3.org/2000/svg"
   xmlns:sodipodi="http://sodipodi.sourceforge.net/DTD/sodipodi-0.dtd"
   xmlns:inkscape="http://www.inkscape.org/namespaces/inkscape"
   version="1.1"
   id="Layer_1"
   x="0px"
   y="0px"
   viewBox="0 0 24.507 24.507"
   xml:space="preserve"
   sodipodi:docname="Gluten_Free_symbol.svg"
   width="24.507"
   height="24.507"
   inkscape:version="1.0 (4035a4fb49, 2020-05-01)"><metadata
   id="metadata918"><rdf:RDF><cc:Work
       rdf:about=""><dc:format>image/svg+xml</dc:format><dc:type
         rdf:resource="http://purl.org/dc/dcmitype/StillImage" /><dc:title /></cc:Work></rdf:RDF></metadata><defs
   id="defs916">
	
	
	
</defs><sodipodi:namedview
   inkscape:document-rotation="0"
   pagecolor="#ffffff"
   bordercolor="#666666"
   borderopacity="1"
   objecttolerance="10"
   gridtolerance="10"
   guidetolerance="10"
   inkscape:pageopacity="0"
   inkscape:pageshadow="2"
   inkscape:window-width="1920"
   inkscape:window-height="998"
   id="namedview914"
   showgrid="false"
   inkscape:pagecheckerboard="true"
   fit-margin-top="0"
   fit-margin-left="0"
   fit-margin-right="0"
   fit-margin-bottom="0"
   inkscape:zoom="11.905963"
   inkscape:cx="23.463577"
   inkscape:cy="27.647724"
   inkscape:window-x="0"
   inkscape:window-y="0"
   inkscape:window-maximized="1"
   inkscape:current-layer="Layer_1" />
<style
   type="text/css"
   id="style903">
	.st0{fill:none;stroke:#BC141A;stroke-width:0.647;}
	.st1{fill:#BC141A;}
	.st2{font-family:'GothamCondensed-Book';}
	.st3{font-size:24px;}
</style>
<g
   id="g895"><path
     class="st0"
     d="m 12.2535,24.1835 c 6.59,0 11.93,-5.34 11.93,-11.93 0,-6.59 -5.34,-11.92999999 -11.93,-11.92999999 -6.59,0 -11.92999999,5.33999999 -11.92999999,11.92999999 0,6.59 5.33999999,11.93 11.92999999,11.93 z"
     id="path905" /><g
     aria-label="g"
     id="text907"
     style="font-size:24px;font-family:GothamCondensed-Book;fill:#bc141a"
     class="st1 st2 st3"><path
       d="m 12.02107,4.494118 v 1.824 c -1.008,-1.512 -2.1120001,-2.184 -3.6960001,-2.184 -3.048,0 -5.16,2.832 -5.16,6.864 0,2.112 0.504,3.648 1.584,4.92 0.936,1.104 2.136,1.704 3.432,1.704 1.512,0 2.5920001,-0.672 3.6480001,-2.256 v 0.648 c 0,3.36 -0.936,4.608 -3.4320001,4.608 -1.704,0 -2.592,-0.672 -2.784,-2.112 h -2.04 c 0.192,2.328 2.04,3.792 4.776,3.792 1.8480001,0 3.3840001,-0.6 4.2000001,-1.608 0.96,-1.176 1.32,-2.736 1.32,-5.688 v -10.512 z m -3.5040001,1.488 c 2.1120001,0 3.3120001,1.776 3.3120001,4.968 0,3.048 -1.224,4.824 -3.3120001,4.824 -2.064,0 -3.264,-1.8 -3.264,-4.896 0,-3.072 1.2,-4.896 3.264,-4.896 z"
       style="font-size:24px;font-family:GothamCondensed-Book;fill:#bc141a"
       id="path884" /></g><g
     aria-label="f"
     id="text909"
     style="font-size:24px;font-family:GothamCondensed-Book;fill:#bc141a"
     class="st1 st2 st3"><path
       d="m 19.736857,7.9852984 h -2.088 v -1.968 c 0,-0.84 0.456,-1.272 1.392,-1.272 0.168,0 0.24,0 0.696,0.024 v -1.656 c -0.456,-0.096 -0.72,-0.12 -1.128,-0.12 -1.848,0 -2.952,1.056 -2.952,2.856 v 2.136 h -1.68 v 1.632 h 1.68 V 20.561298 h 1.992 V 9.6172984 h 2.088 z"
       style="font-size:24px;font-family:GothamCondensed-Book;fill:#bc141a"
       id="path887" /></g></g>
</svg>
