<?xml version="1.0" encoding="UTF-8" standalone="no"?>
<svg
   xmlns:dc="http://purl.org/dc/elements/1.1/"
   xmlns:cc="http://creativecommons.org/ns#"
   xmlns:rdf="http://www.w3.org/1999/02/22-rdf-syntax-ns#"
   xmlns:svg="http://www.w3.org/2000/svg"
   xmlns="http://www.w3.org/2000/svg"
   version="1.1"
   id="Layer_1"
   x="0px"
   y="0px"
   viewBox="0 0 24.548 24.548"
   xml:space="preserve"
   width="24.548"
   height="24.548"><metadata
   id="metadata901"><rdf:RDF><cc:Work
       rdf:about=""><dc:format>image/svg+xml</dc:format><dc:type
         rdf:resource="http://purl.org/dc/dcmitype/StillImage" /><dc:title></dc:title></cc:Work></rdf:RDF></metadata><defs
   id="defs899">
	
	
	
</defs>
<style
   type="text/css"
   id="style886">
	.st0{fill:none;stroke:#BC141A;stroke-width:0.648;}
	.st1{fill:#BC141A;}
	.st2{font-family:'GothamCondensed-Book';}
	.st3{font-size:24.0348px;}
</style>

<g
   id="layer1"
   transform="translate(-307.87986,-387.5478)"><g
     id="g885"><path
       id="circle888"
       style="fill:none;stroke:#94241e;stroke-width:0.648;stroke-opacity:1"
       d="m 332.10386,399.8218 a 11.95,11.95 0 0 1 -11.95,11.95 11.95,11.95 0 0 1 -11.95,-11.95 11.95,11.95 0 0 1 11.95,-11.95 11.95,11.95 0 0 1 11.95,11.95"
       class="st0" /><g
       aria-label="d"
       transform="translate(309.25356,408.41439)"
       id="text890"
       style="font-size:24.0348px;font-family:GothamCondensed-Book;fill:#bc141a"
       class="st1 st2 st3"><path
         d="M 11.897226,-17.521369 H 9.9023374 v 6.513431 c -0.841218,-1.273845 -2.1871667,-1.946819 -3.8696027,-1.946819 -3.2687327,0 -5.40782991,2.619793 -5.40782991,6.6336047 0,4.2541595 2.06699281,6.87395269 5.47993431,6.87395269 1.7305056,0 2.9322455,-0.64893959 4.0138119,-2.21120159 V 0 h 1.778575 z m -5.5280041,6.441326 c 2.1631319,0 3.5331155,1.8987496 3.5331155,4.9271343 0,2.9082108 -1.3940184,4.8309947 -3.5090807,4.8309947 -2.2112016,0 -3.6773243,-1.9468187 -3.6773243,-4.8790643 0,-2.9322455 1.4661227,-4.8790647 3.6532895,-4.8790647 z"
         style="font-size:24.0348px;font-family:GothamCondensed-Book;fill:#94241e;fill-opacity:1"
         id="path904" /></g><g
       aria-label="f"
       transform="translate(320.89336,408.31769)"
       id="text892"
       style="font-size:24.0348px;font-family:GothamCondensed-Book;fill:#bc141a"
       class="st1 st2 st3"><path
         d="M 6.2009783,-12.594235 H 4.1099507 v -1.970854 c 0,-0.841218 0.4566612,-1.273844 1.3940184,-1.273844 0.1682436,0 0.240348,0 0.6970092,0.02404 v -1.658401 c -0.4566612,-0.09614 -0.721044,-0.120174 -1.1296356,-0.120174 -1.8506796,0 -2.9562803,1.057531 -2.9562803,2.860141 v 2.139097 H 0.43262639 v 1.634366 H 2.1150624 V 0 h 1.9948883 v -10.959869 h 2.0910276 z"
         style="font-size:24.0348px;font-family:GothamCondensed-Book;fill:#94241e;fill-opacity:1"
         id="path907" /></g></g></g></svg>
