<?xml version="1.0" encoding="UTF-8" standalone="no"?>
<svg
   xmlns:dc="http://purl.org/dc/elements/1.1/"
   xmlns:cc="http://creativecommons.org/ns#"
   xmlns:rdf="http://www.w3.org/1999/02/22-rdf-syntax-ns#"
   xmlns:svg="http://www.w3.org/2000/svg"
   xmlns="http://www.w3.org/2000/svg"
   xmlns:sodipodi="http://sodipodi.sourceforge.net/DTD/sodipodi-0.dtd"
   xmlns:inkscape="http://www.inkscape.org/namespaces/inkscape"
   height="24.548"
   width="24.548"
   inkscape:version="1.0 (4035a4fb49, 2020-05-01)"
   sodipodi:docname="Dairy_Free_symbol.svg"
   xml:space="preserve"
   viewBox="0 0 24.548 24.548"
   y="0px"
   x="0px"
   id="Layer_1"
   version="1.1"><metadata
   id="metadata901"><rdf:RDF><cc:Work
       rdf:about=""><dc:format>image/svg+xml</dc:format><dc:type
         rdf:resource="http://purl.org/dc/dcmitype/StillImage" /><dc:title /></cc:Work></rdf:RDF></metadata><defs
   id="defs899">
	
	
	
</defs><sodipodi:namedview
   fit-margin-bottom="0"
   fit-margin-right="0"
   fit-margin-left="0"
   fit-margin-top="0"
   inkscape:current-layer="layer1"
   inkscape:window-maximized="1"
   inkscape:window-y="0"
   inkscape:window-x="0"
   inkscape:cy="25.357205"
   inkscape:cx="-16.732196"
   inkscape:zoom="10.34253"
   inkscape:pagecheckerboard="true"
   showgrid="false"
   id="namedview897"
   inkscape:window-height="998"
   inkscape:window-width="1920"
   inkscape:pageshadow="2"
   inkscape:pageopacity="0"
   guidetolerance="10"
   gridtolerance="10"
   objecttolerance="10"
   borderopacity="1"
   bordercolor="#666666"
   pagecolor="#ffffff"
   inkscape:document-rotation="0" />
<style
   id="style886"
   type="text/css">
	.st0{fill:none;stroke:#BC141A;stroke-width:0.648;}
	.st1{fill:#BC141A;}
	.st2{font-family:'GothamCondensed-Book';}
	.st3{font-size:24.0348px;}
</style>

<g
   transform="translate(-307.87986,-387.5478)"
   inkscape:label="Layer 1"
   id="layer1"
   inkscape:groupmode="layer"><g
     id="g885"><path
       class="st0"
       d="m 332.10386,399.8218 a 11.95,11.95 0 0 1 -11.95,11.95 11.95,11.95 0 0 1 -11.95,-11.95 11.95,11.95 0 0 1 11.95,-11.95 11.95,11.95 0 0 1 11.95,11.95"
       style="fill:none;stroke:#bc141a;stroke-width:0.648"
       id="circle888" /><g
       class="st1 st2 st3"
       style="font-size:24.0348px;font-family:GothamCondensed-Book;fill:#bc141a"
       id="text890"
       transform="translate(309.25356,408.41439)"
       aria-label="d"><path
         id="path904"
         style="font-size:24.0348px;font-family:GothamCondensed-Book;fill:#bc141a"
         d="M 11.897226,-17.521369 H 9.9023374 v 6.513431 c -0.841218,-1.273845 -2.1871667,-1.946819 -3.8696027,-1.946819 -3.2687327,0 -5.40782991,2.619793 -5.40782991,6.6336047 0,4.2541595 2.06699281,6.87395269 5.47993431,6.87395269 1.7305056,0 2.9322455,-0.64893959 4.0138119,-2.21120159 V 0 h 1.778575 z m -5.5280041,6.441326 c 2.1631319,0 3.5331155,1.8987496 3.5331155,4.9271343 0,2.9082108 -1.3940184,4.8309947 -3.5090807,4.8309947 -2.2112016,0 -3.6773243,-1.9468187 -3.6773243,-4.8790643 0,-2.9322455 1.4661227,-4.8790647 3.6532895,-4.8790647 z" /></g><g
       class="st1 st2 st3"
       style="font-size:24.0348px;font-family:GothamCondensed-Book;fill:#bc141a"
       id="text892"
       transform="translate(320.89336,408.31769)"
       aria-label="f"><path
         id="path907"
         style="font-size:24.0348px;font-family:GothamCondensed-Book;fill:#bc141a"
         d="M 6.2009783,-12.594235 H 4.1099507 v -1.970854 c 0,-0.841218 0.4566612,-1.273844 1.3940184,-1.273844 0.1682436,0 0.240348,0 0.6970092,0.02404 v -1.658401 c -0.4566612,-0.09614 -0.721044,-0.120174 -1.1296356,-0.120174 -1.8506796,0 -2.9562803,1.057531 -2.9562803,2.860141 v 2.139097 H 0.43262639 v 1.634366 H 2.1150624 V 0 h 1.9948883 v -10.959869 h 2.0910276 z" /></g></g></g></svg>
