<?xml version="1.0" encoding="UTF-8" standalone="no"?>
<svg
   xmlns:dc="http://purl.org/dc/elements/1.1/"
   xmlns:cc="http://creativecommons.org/ns#"
   xmlns:rdf="http://www.w3.org/1999/02/22-rdf-syntax-ns#"
   xmlns:svg="http://www.w3.org/2000/svg"
   xmlns="http://www.w3.org/2000/svg"
   xmlns:sodipodi="http://sodipodi.sourceforge.net/DTD/sodipodi-0.dtd"
   xmlns:inkscape="http://www.inkscape.org/namespaces/inkscape"
   version="1.1"
   id="svg2"
   width="608.12189"
   height="479.94202"
   viewBox="0 0 608.12189 479.94202"
   sodipodi:docname="email.svg"
   inkscape:version="1.0.1 (3bc2e813f5, 2020-09-07, custom)">
  <metadata
     id="metadata8">
    <rdf:RDF>
      <cc:Work
         rdf:about="">
        <dc:format>image/svg+xml</dc:format>
        <dc:type
           rdf:resource="http://purl.org/dc/dcmitype/StillImage" />
        <dc:title></dc:title>
      </cc:Work>
    </rdf:RDF>
  </metadata>
  <defs
     id="defs6" />
  <sodipodi:namedview
     pagecolor="#ffffff"
     bordercolor="#666666"
     borderopacity="1"
     objecttolerance="10"
     gridtolerance="10"
     guidetolerance="10"
     inkscape:pageopacity="0"
     inkscape:pageshadow="2"
     inkscape:window-width="1920"
     inkscape:window-height="1004"
     id="namedview4"
     showgrid="false"
     fit-margin-top="0"
     fit-margin-left="0"
     fit-margin-right="0"
     fit-margin-bottom="0"
     inkscape:zoom="0.74481715"
     inkscape:cx="10.078908"
     inkscape:cy="-1.9443076"
     inkscape:window-x="0"
     inkscape:window-y="0"
     inkscape:window-maximized="1"
     inkscape:current-layer="layer1" />
  <g
     inkscape:groupmode="layer"
     id="layer1"
     inkscape:label="trace"
     transform="translate(-80.029442,-143.99088)"
     style="display:inline">
    <path
       id="path2001"
       style="fill:#000000"
       d="M 130.67515,622.37276 C 90.776713,615.48013 77.263873,576.75511 80.493548,535.44634 79.854551,422.94903 79.317781,310.44016 81.076026,197.94977 c 4.30123,-36.28101 37.167684,-56.6558 76.888934,-53.19923 156.01779,-1.33195 312.08561,-1.19643 468.08087,0.11429 33.58165,-0.27434 62.59119,29.30893 61.36897,62.9472 0.40239,121.86489 2.05264,243.81482 -0.91415,365.68797 -6.74528,37.24226 -47.51758,55.68605 -82.2433,50.01857 -157.59409,0.26922 -315.2568,1.60025 -472.80816,-1.06032 z M 624,265.76728 C 549.9421,333.44253 479.61391,405.37364 403.61715,470.80313 373.65053,489.24583 339.29089,469.37444 320.14206,444.94889 260.9341,387.70413 202.91778,329.24513 144,271.70406 V 560 H 624 Z M 591.47826,208 H 170.70371 c 68.6543,67.64556 136.94588,135.65969 205.90059,203 73.51774,-69.32341 147.19664,-137.97174 214.87396,-203 z"
       sodipodi:nodetypes="ccccccccccccccccccccc" />
  </g>
</svg>
