<?xml version="1.0" encoding="UTF-8" standalone="no"?>
<svg
   xmlns:dc="http://purl.org/dc/elements/1.1/"
   xmlns:cc="http://creativecommons.org/ns#"
   xmlns:rdf="http://www.w3.org/1999/02/22-rdf-syntax-ns#"
   xmlns:svg="http://www.w3.org/2000/svg"
   xmlns="http://www.w3.org/2000/svg"
   xmlns:xlink="http://www.w3.org/1999/xlink"
   xmlns:sodipodi="http://sodipodi.sourceforge.net/DTD/sodipodi-0.dtd"
   xmlns:inkscape="http://www.inkscape.org/namespaces/inkscape"
   viewBox="0 0 36 36"
   height="80"
   width="80"
   version="1.1"
   id="svg14"
   sodipodi:docname="facebook4.svg"
   inkscape:version="1.0.1 (3bc2e813f5, 2020-09-07)">
  <metadata
     id="metadata18">
    <rdf:RDF>
      <cc:Work
         rdf:about="">
        <dc:format>image/svg+xml</dc:format>
        <dc:type
           rdf:resource="http://purl.org/dc/dcmitype/StillImage" />
        <dc:title />
      </cc:Work>
    </rdf:RDF>
  </metadata>
  <sodipodi:namedview
     pagecolor="#ffffff"
     bordercolor="#666666"
     borderopacity="1"
     objecttolerance="10"
     gridtolerance="10"
     guidetolerance="10"
     inkscape:pageopacity="0"
     inkscape:pageshadow="2"
     inkscape:window-width="1920"
     inkscape:window-height="1004"
     id="namedview16"
     showgrid="false"
     inkscape:zoom="20.475"
     inkscape:cx="21.693122"
     inkscape:cy="18.033894"
     inkscape:window-x="0"
     inkscape:window-y="0"
     inkscape:window-maximized="1"
     inkscape:current-layer="svg14"
     inkscape:document-rotation="0" />
  <defs
     id="defs8">
    <linearGradient
       inkscape:collect="always"
       id="linearGradient847">
      <stop
         style="stop-color:#0062E0;stop-opacity:1;"
         offset="0"
         id="stop843" />
      <stop
         style="stop-color:#19afff;stop-opacity:1"
         offset="1"
         id="stop845" />
    </linearGradient>
    <linearGradient
       inkscape:collect="always"
       xlink:href="#linearGradient847"
       id="linearGradient842"
       gradientUnits="userSpaceOnUse"
       x1="35.753849"
       y1="0.28131896"
       x2="0.16703258"
       y2="35.885712" />
  </defs>
  <path
     d="M15 35.8C6.5 34.3 0 26.9 0 18 0 8.1 8.1 0 18 0s18 8.1 18 18c0 8.9-6.5 16.3-15 17.8l-1-.8h-4l-1 .8z"
     id="path10"
     style="fill-opacity:1;fill:url(#linearGradient842);fill-rule:evenodd" />
  <path
     d="M25 23l.8-5H21v-3.5c0-1.4.5-2.5 2.7-2.5H26V7.4c-1.3-.2-2.7-.4-4-.4-4.1 0-7 2.5-7 7v4h-4.5v5H15v12.7c1 .2 2 .3 3 .3s2-.1 3-.3V23h4z"
     id="path12"
     style="fill:#ffffff;fill-opacity:1" />
</svg>
