<?xml version="1.0" encoding="utf-8"?>
<!-- Generator: Adobe Illustrator 24.3.0, SVG Export Plug-In . SVG Version: 6.00 Build 0)  -->
<svg version="1.1" id="Layer_1" xmlns="http://www.w3.org/2000/svg" xmlns:xlink="http://www.w3.org/1999/xlink" x="0px" y="0px"
	 viewBox="0 0 792 612" style="enable-background:new 0 0 792 612;" xml:space="preserve">
<style type="text/css">
	.st0{fill-rule:evenodd;clip-rule:evenodd;fill:#B8BC9B;}
	.st1{fill-rule:evenodd;clip-rule:evenodd;fill:none;stroke:#FFFFFF;stroke-miterlimit:10;}
	.st2{fill-rule:evenodd;clip-rule:evenodd;fill:#FEFEFE;}
	.st3{fill:#BC141A;}
	.st4{fill-rule:evenodd;clip-rule:evenodd;fill:#FFFFFF;}
	.st5{fill:#FFFFFF;}
	.st6{fill-rule:evenodd;clip-rule:evenodd;fill:#BC141A;}
</style>
<path class="st0" d="M279.96,292.67l64.94-6.54l1.15-1.88c2.88-4.74,3.86-4.55,9.27-6.01l8.8-1.65c2.33-0.58,7.16-1.03,10.12-2.47
	c1.69-0.82,2.42-2.34,2.28-3.76c-0.15-1.41-0.58-3.08-0.8-4.16c-0.4-2.91,0.4-4.69,3.2-5.8c0.51-0.2,1.08-0.41,1.74-0.61l14.87-4.49
	l14.86,4.49c0.65,0.2,1.23,0.4,1.74,0.61c2.8,1.11,3.61,2.89,3.2,5.8c-0.22,1.08-0.66,2.75-0.8,4.16c-0.15,1.42,0.58,2.93,2.28,3.76
	c2.96,1.45,7.79,1.89,10.12,2.47l8.8,1.65c5.42,1.46,6.39,1.27,9.27,6.01l1.12,1.85l65.64,6.57c3.35,0.34,6.12,2.69,6.12,5.99v26.93
	c0,3.29-2.83,5.3-6.12,5.99l-116.24,24.27l-48.96-10.28l-66.6-13.99c-3.29-0.69-6.12-2.69-6.12-5.99v-26.93
	C273.84,295.36,276.62,293,279.96,292.67L279.96,292.67z"/>
<path class="st1" d="M279.81,332.27c-4.13-0.87-6.69-3.43-6.69-6.69v-26.93c0-3.49,2.85-6.31,6.77-6.7l64.59-6.5l0.96-1.58
	c2.75-4.52,4.02-4.85,8.21-5.94c0.46-0.12,0.95-0.25,1.49-0.39l8.85-1.66c0.69-0.17,1.61-0.33,2.68-0.52
	c2.35-0.41,5.28-0.93,7.25-1.89c1.29-0.63,2.01-1.79,1.88-3.04c-0.1-0.97-0.35-2.08-0.56-3.05c-0.09-0.38-0.17-0.74-0.23-1.04
	c-0.47-3.4,0.65-5.43,3.65-6.61c0.57-0.23,1.17-0.44,1.79-0.63l15.08-4.55l15.07,4.55c0.62,0.19,1.21,0.39,1.79,0.63
	c2.99,1.18,4.12,3.21,3.65,6.57c-0.07,0.34-0.14,0.68-0.22,1.04c-0.21,0.94-0.47,2.1-0.57,3.1c-0.13,1.25,0.59,2.41,1.88,3.04
	c1.98,0.96,4.9,1.48,7.25,1.89c1.07,0.19,2,0.35,2.72,0.53l8.76,1.64c0.59,0.16,1.09,0.29,1.54,0.4c4.2,1.09,5.47,1.42,8.21,5.94
	l0.94,1.54l65.29,6.54c3.92,0.39,6.77,3.21,6.77,6.7v26.93c0,3.26-2.56,5.83-6.69,6.69l-116.39,24.3L279.81,332.27z"/>
<path class="st1" d="M279.96,292.67l64.94-6.54l1.15-1.88c2.88-4.74,3.86-4.55,9.27-6.01l8.8-1.65c2.33-0.58,7.16-1.03,10.12-2.47
	c1.69-0.82,2.42-2.34,2.28-3.76c-0.15-1.41-0.58-3.08-0.8-4.16c-0.4-2.91,0.4-4.69,3.2-5.8c0.51-0.2,1.08-0.41,1.74-0.61l14.87-4.49
	l14.86,4.49c0.65,0.2,1.23,0.4,1.74,0.61c2.8,1.11,3.61,2.89,3.2,5.8c-0.22,1.08-0.66,2.75-0.8,4.16c-0.15,1.42,0.58,2.93,2.28,3.76
	c2.96,1.45,7.79,1.89,10.12,2.47l8.8,1.65c5.42,1.46,6.39,1.27,9.27,6.01l1.12,1.85l65.64,6.57c3.35,0.34,6.12,2.69,6.12,5.99v26.93
	c0,3.29-2.83,5.3-6.12,5.99l-116.24,24.27l-48.96-10.28l-66.6-13.99c-3.29-0.69-6.12-2.69-6.12-5.99v-26.93
	C273.84,295.36,276.62,293,279.96,292.67L279.96,292.67z"/>
<polygon class="st2" points="382.96,279.64 382.96,281.26 356.28,283.23 382.96,285.12 382.96,286.54 384.72,286.54 384.72,279.64 
	"/>
<polygon class="st2" points="434.93,283.07 408.26,281.09 408.26,279.48 406.49,279.48 406.49,286.38 408.26,286.38 408.26,284.96 
	"/>
<path class="st3" d="M395.55,293.84h-0.04c-2.16,0-4.01-0.13-5.1-0.35c-1.26-0.25-1.57-1.12-1.69-1.85
	c-0.92-5.45-1.62-11.09-2.3-16.54l-0.08-0.7c-0.17-1.38-0.36-2.75-0.55-4.12c-0.18-1.3-0.36-2.61-0.52-3.93
	c-0.21-1.63,0.44-2.02,0.84-2.11c0.27-0.06,0.38-0.1,0.45-0.17c0.19-0.67,0.67-1.21,1.36-1.53c0.48-0.22,1.05-0.3,1.6-0.37
	l0.18-0.02c0.61-0.09,1.01-0.19,1.42-0.48c0.64-0.46,0.88-0.5,1.45-0.5c0.1,0,0.21,0,0.35-0.01c0.55-0.02,1.06-0.26,1.6-0.51
	l0.35-0.16c1.15-0.51,1.98-0.54,3.06-0.13l0.2,0.08c0.33,0.13,0.65,0.25,0.91,0.28c1.33,0.15,1.7,0.54,2.34,1.35l0.2,0.25
	c0.11,0.13,0.19,0.19,0.55,0.2c0.6,0.02,0.95,0.12,1.5,0.41c0.48,0.25,1.03,0.6,1.41,0.89c0.82,0.62,0.85,0.83,0.74,1.98
	c-0.38,2.88-0.73,5.75-1.09,8.63c-0.69,5.66-1.41,11.52-2.37,17.2c-0.12,0.73-0.43,1.6-1.69,1.85
	C399.53,293.72,397.68,293.84,395.55,293.84z"/>
<path class="st4" d="M397.13,264.78c0.51,0.08,0.93,0.27,0.77,0.69c-0.17,0.01-0.29,0.01-0.37,0.01c-0.34-0.01-0.64,0-0.87,0.3
	c-0.3,0.38-0.31,1.05-0.27,1.73c0.05,0.86,0.04,0.97,0.8,1.01c2.16,0.11,3.93,0.1,5.8-0.08c0.63-0.06,0.88,0,1.03-0.71
	c0.08-0.38,0.12-0.93,0.19-1.53c0.08-0.68-0.17-0.66-0.81-0.67c-1.2-0.02-2.84-0.08-3.76-0.12c-0.34-0.57,0.07-0.83,0.58-0.85
	c0.47-0.03,3.02,0.26,3.28-0.02c0.02-0.38-0.47-0.67-0.76-0.71c-0.46-0.08-1-0.04-1.47-0.12c-0.84-0.13-0.79-0.49-1.21-1.08
	c-0.35-0.5-1.38-0.87-2.24-1.09c-1.54-0.39-2.17-0.02-3.49,0.84c-0.47,0.31-0.85,0.29-1.35,0.04c-1.52-0.2-1.51,0.59-2.31,0.82
	c-0.36,0.11-0.78,0.09-1.17,0.17c-0.54,0.1-1.05,0.28-1.29,0.75c-0.15,0.3-0.25,0.35,0.12,0.48c0.32,0.11,0.63,0.1,1.01,0.14
	c1.76,0.1,1,6.53,1.9,8.31c0.26,0.51,0.56,0.95,0.88,1.23c0.57,0.5,1.01,0.39,1.45-0.01c0.38-0.34,0.69-0.77,0.92-1.22
	c0.71-1.4,0.71-3.12,0.83-4.69C395.23,266.47,395.07,264.75,397.13,264.78L397.13,264.78z"/>
<path class="st4" d="M392.25,278.58c0.2,0.73,1.27,0.9,1.38-0.16c0.06-0.57,0.2-1.08,0.16-1.65c-0.07-0.97-1.59-0.94-1.77-0.06
	C391.9,277.27,392.12,278.1,392.25,278.58L392.25,278.58z"/>
<path class="st4" d="M397.88,292.48c0.97-0.02,1.95-0.11,2.5-0.39c0.49-0.25,0.56-0.7,0.6-1.45c-1.37,0-3.59,0-5.44,0
	c-1.84,0-4.07,0-5.44,0c0.04,0.74,0.11,1.19,0.6,1.44c0.64,0.33,1.83,0.4,2.94,0.4C395.05,292.49,396.48,292.51,397.88,292.48
	L397.88,292.48z"/>
<path class="st4" d="M402.84,269.73c0.19-0.01,0.34,0.04,0.32,0.18l-2.4,17.66c-0.07,0.59,0.05,0.85-0.61,1.11
	c-0.29,0.11-1.37,0.42-2.05,0.5c1.54-0.78,1.54-0.73,1.67-1.95l1.4-13.72l0.32-3.48C401.51,269.7,402.56,269.74,402.84,269.73
	L402.84,269.73z"/>
<path class="st4" d="M399.07,272.58l-1.14,13.18c-0.03,0.34-0.05,0.67-0.08,1.01c-0.02,0.18-0.05,0.34-0.19,0.52l-0.23,0.3
	l0.04-0.63l1.17-16.6c0.03-0.4-0.01-0.55,0.41-0.58c0.25-0.02,0.28,0.08,0.26,0.24C399.21,270.87,399.14,271.73,399.07,272.58
	L399.07,272.58z"/>
<path class="st4" d="M388.48,265.52c-0.45-0.04-0.84-0.02-1.27-0.06c-0.42-0.04-0.61,0.15-0.56,0.54c0.04,0.29,0.1,1.15,0.2,1.66
	c0.08,0.42,0.16,0.54,0.58,0.61c0.45,0.07,1.11,0.09,1.58,0.06c0.41-0.03,0.49-0.07,0.51-0.53c0.02-0.49,0.01-1-0.07-1.49
	c-0.03-0.19-0.08-0.35-0.13-0.43C389.19,265.63,388.84,265.56,388.48,265.52L388.48,265.52z"/>
<path class="st4" d="M299.86,299.26c2.55,0,4.1,0.45,5.27,1.54s1.62,2.47,1.62,4.91v2.12c0,2.44-0.45,3.82-1.62,4.88
	c-1.21,1.09-2.72,1.54-5.27,1.54h-8.96v6.42h-7.13v-21.4H299.86L299.86,299.26z M299.17,308.69c0.28,0,0.45-0.16,0.45-0.42v-3.01
	c0-0.26-0.17-0.42-0.45-0.42h-8.27v3.85H299.17L299.17,308.69z"/>
<path class="st5" d="M292.12,321.88h-9.57v-23.84h17.31c2.88,0,4.7,0.56,6.1,1.87c1.43,1.33,2.01,3.01,2.01,5.8v2.12
	c0,2.81-0.59,4.48-2.02,5.78c-1.46,1.32-3.22,1.85-6.09,1.85h-7.74V321.88z M284.99,319.44h4.69v-6.42h10.18
	c2.57,0,3.64-0.49,4.45-1.22c0.75-0.68,1.22-1.58,1.22-3.97v-2.12c0-2.39-0.47-3.31-1.23-4.02c-0.92-0.86-2.21-1.21-4.44-1.21
	h-14.87V319.44z M299.17,309.91h-9.49v-6.29h9.49c0.95,0,1.67,0.7,1.67,1.64v3.01C300.84,309.2,300.12,309.91,299.17,309.91z
	 M292.12,307.47h6.28v-1.41h-6.28V307.47z"/>
<path class="st4" d="M335.14,314.24c0,2.44-0.45,3.82-1.62,4.88c-1.21,1.09-2.72,1.54-5.27,1.54h-9.2c-2.55,0-4.07-0.45-5.27-1.54
	c-1.17-1.06-1.62-2.44-1.62-4.88v-8.54c0-2.44,0.45-3.82,1.62-4.91c1.17-1.09,2.72-1.54,5.27-1.54h9.2c2.55,0,4.1,0.45,5.27,1.54
	c1.17,1.09,1.62,2.47,1.62,4.91V314.24L335.14,314.24z M319.74,304.84c-0.27,0-0.45,0.16-0.45,0.42v9.43c0,0.26,0.17,0.42,0.45,0.42
	h7.82c0.27,0,0.45-0.16,0.45-0.42v-9.43c0-0.26-0.17-0.42-0.45-0.42H319.74L319.74,304.84z"/>
<path class="st5" d="M328.25,321.88h-9.2c-2.83,0-4.65-0.55-6.09-1.86c-1.44-1.3-2.02-2.97-2.02-5.78v-8.54
	c0-2.79,0.58-4.47,2.01-5.8c1.4-1.31,3.23-1.87,6.11-1.87h9.2c2.88,0,4.7,0.56,6.11,1.87c1.42,1.33,2.01,3.01,2.01,5.8v8.54
	c0,2.81-0.59,4.49-2.02,5.78C332.9,321.32,331.08,321.88,328.25,321.88z M319.05,300.48c-2.23,0-3.52,0.35-4.44,1.21
	c-0.76,0.71-1.23,1.63-1.23,4.02v8.54c0,2.39,0.46,3.29,1.22,3.97c0.82,0.74,1.88,1.23,4.46,1.23h9.2c2.57,0,3.64-0.49,4.46-1.23
	c0.75-0.68,1.22-1.58,1.22-3.97v-8.54c0-2.39-0.47-3.31-1.23-4.02c-0.92-0.86-2.21-1.21-4.44-1.21H319.05z M327.56,316.33h-7.82
	c-0.95,0-1.67-0.7-1.67-1.64v-9.43c0-0.93,0.72-1.64,1.67-1.64h7.82c0.95,0,1.67,0.7,1.67,1.64v9.43
	C329.23,315.62,328.51,316.33,327.56,316.33z M320.51,313.89h6.28v-7.83h-6.28V313.89z"/>
<path class="st4" d="M357.28,299.26c2.55,0,4.1,0.45,5.27,1.54c1.17,1.09,1.62,2.47,1.62,4.88v1.6c0,4.01-1.21,5.65-4.62,6.38
	l5.31,7h-7.82l-4.83-6.97h-3.89v6.97h-7.13v-21.4H357.28L357.28,299.26z M356.59,308.34c0.28,0,0.45-0.16,0.45-0.42v-2.66
	c0-0.26-0.17-0.42-0.45-0.42h-8.27v3.5H356.59L356.59,308.34z"/>
<path class="st5" d="M367.31,321.88H356.4l-4.82-6.97h-2.04v6.97h-9.57v-23.84h17.31c2.88,0,4.7,0.56,6.11,1.87
	c1.42,1.33,2,3,2,5.77v1.6c0,3.83-1.09,5.95-3.8,7.04L367.31,321.88z M357.68,319.44h4.73l-4.98-6.56l1.87-0.4
	c2.53-0.55,3.65-1.43,3.65-5.19v-1.6c0-2.36-0.47-3.28-1.23-3.99c-0.92-0.86-2.21-1.21-4.44-1.21h-14.87v18.96h4.7v-6.97h5.75
	L357.68,319.44z M356.59,309.55h-9.49v-5.94h9.49c0.95,0,1.67,0.7,1.67,1.64v2.66C358.26,308.85,357.54,309.55,356.59,309.55z
	 M349.54,307.12h6.28v-1.06h-6.28V307.12z"/>
<polygon class="st4" points="384.87,320.66 377.73,320.66 377.73,304.81 369.57,304.81 369.57,299.26 393,299.26 393,304.81 
	384.87,304.81 384.87,320.66 "/>
<path class="st5" d="M386.09,321.88h-9.57v-15.85h-8.17v-7.99h25.87v7.99h-8.13V321.88z M378.95,319.44h4.69v-15.85h8.13v-3.11
	h-20.99v3.11h8.17V319.44z"/>
<polygon class="st4" points="406.04,299.26 406.04,315.11 417.99,315.11 417.96,320.69 398.92,320.66 398.92,299.26 406.04,299.26 
	"/>
<path class="st5" d="M419.17,321.91l-21.47-0.04v-23.84h9.56v15.85h11.96L419.17,321.91z M400.14,319.44l16.61,0.03l0.02-3.15
	h-11.95v-15.85h-4.68V319.44z"/>
<path class="st4" d="M432.35,317.45l-1.41,3.21h-8.03l10.44-21.47h7.13l10.44,21.47h-8.03l-1.41-3.21H432.35L432.35,317.45z
	 M434.59,311.9h4.69l-2.35-5.81L434.59,311.9L434.59,311.9z"/>
<path class="st5" d="M452.87,321.88H442.1l-1.41-3.21h-7.54l-1.41,3.21h-10.77l11.63-23.91h8.66L452.87,321.88z M443.69,319.44h5.29
	l-9.25-19.03h-5.61l-9.25,19.03h5.28l1.41-3.21h10.72L443.69,319.44z M441.08,313.12h-8.3l3.02-7.48h2.26L441.08,313.12z
	 M436.39,310.68h1.07l-0.54-1.33L436.39,310.68z"/>
<path class="st4" d="M501.7,299.26c2.55,0,4.1,0.45,5.27,1.54c1.17,1.09,1.62,2.47,1.62,4.91v8.54c0,2.44-0.45,3.82-1.62,4.88
	c-1.21,1.09-2.72,1.54-5.27,1.54h-16.09v-21.4H501.7L501.7,299.26z M501.01,315.11c0.27,0,0.45-0.16,0.45-0.42v-9.43
	c0-0.26-0.17-0.42-0.45-0.42h-8.27v10.27H501.01L501.01,315.11z"/>
<path class="st5" d="M501.7,321.88h-17.31v-23.84h17.31c2.87,0,4.7,0.56,6.11,1.87c1.43,1.33,2.01,3.01,2.01,5.8v8.54
	c0,2.81-0.59,4.49-2.02,5.78C506.33,321.34,504.56,321.88,501.7,321.88z M486.82,319.44h14.87c2.57,0,3.64-0.49,4.46-1.23
	c0.75-0.68,1.22-1.58,1.22-3.97v-8.54c0-2.39-0.47-3.31-1.23-4.02c-0.93-0.86-2.21-1.21-4.44-1.21h-14.87V319.44z M501.01,316.33
	h-9.49v-12.71h9.49c0.95,0,1.67,0.7,1.67,1.64v9.43C502.68,315.62,501.96,316.33,501.01,316.33z M493.96,313.89h6.28v-7.83h-6.28
	V313.89z"/>
<polygon class="st4" points="456.08,299.22 463.17,299.24 471.89,310.22 471.89,299.21 479.03,299.21 479.04,320.65 471.92,320.65 
	463.2,309.32 463.19,320.65 456.09,320.65 456.08,299.22 "/>
<path class="st5" d="M480.27,321.87l-8.94-0.01l-6.91-8.97l-0.01,8.97h-9.53L454.86,298l8.9,0.02l6.92,8.7v-8.74h9.58L480.27,321.87
	z M457.31,319.43h4.66l0.01-10.11l2.19-0.74l8.36,10.85l5.3,0.01l-0.01-19h-4.71v9.79l-2.17,0.76l-8.36-10.52l-5.28-0.02
	L457.31,319.43z"/>
<path class="st6" d="M299.84,299.21c2.55,0,4.1,0.45,5.27,1.54c1.17,1.09,1.62,2.47,1.62,4.91v2.12c0,2.44-0.45,3.82-1.62,4.88
	c-1.21,1.09-2.72,1.54-5.27,1.54h-8.96v6.42h-7.13v-21.4H299.84L299.84,299.21z M299.15,308.64c0.27,0,0.45-0.16,0.45-0.42v-3.02
	c0-0.26-0.17-0.42-0.45-0.42h-8.27v3.85H299.15L299.15,308.64z"/>
<path class="st6" d="M335.12,314.19c0,2.44-0.45,3.82-1.62,4.88c-1.21,1.09-2.72,1.54-5.27,1.54h-9.2c-2.55,0-4.07-0.45-5.27-1.54
	c-1.17-1.06-1.62-2.44-1.62-4.88v-8.53c0-2.44,0.45-3.82,1.62-4.91c1.17-1.09,2.72-1.54,5.27-1.54h9.2c2.55,0,4.1,0.45,5.27,1.54
	c1.17,1.09,1.62,2.47,1.62,4.91V314.19L335.12,314.19z M319.72,304.79c-0.28,0-0.45,0.16-0.45,0.42v9.43c0,0.26,0.17,0.42,0.45,0.42
	h7.82c0.28,0,0.45-0.16,0.45-0.42v-9.43c0-0.26-0.17-0.42-0.45-0.42H319.72L319.72,304.79z"/>
<path class="st6" d="M357.26,299.21c2.55,0,4.1,0.45,5.27,1.54c1.17,1.09,1.62,2.47,1.62,4.88v1.61c0,4.01-1.21,5.65-4.62,6.39
	l5.31,6.99h-7.82l-4.83-6.96h-3.89v6.96h-7.13v-21.4H357.26L357.26,299.21z M356.57,308.29c0.28,0,0.45-0.16,0.45-0.42v-2.66
	c0-0.26-0.17-0.42-0.45-0.42h-8.27v3.5H356.57L356.57,308.29z"/>
<polygon class="st6" points="384.85,320.61 377.71,320.61 377.71,304.76 369.55,304.76 369.55,299.21 392.98,299.21 392.98,304.76 
	384.85,304.76 384.85,320.61 "/>
<polygon class="st6" points="406.02,299.21 406.02,315.06 417.97,315.06 417.94,320.64 398.9,320.61 398.9,299.21 406.02,299.21 "/>
<path class="st6" d="M432.33,317.4l-1.41,3.21h-8.03l10.44-21.47h7.13l10.44,21.47h-8.03l-1.41-3.21H432.33L432.33,317.4z
	 M434.56,311.85h4.69l-2.34-5.81L434.56,311.85L434.56,311.85z"/>
<path class="st6" d="M501.67,299.21c2.55,0,4.1,0.45,5.27,1.54c1.17,1.09,1.62,2.47,1.62,4.91v8.53c0,2.44-0.45,3.82-1.62,4.88
	c-1.21,1.09-2.72,1.54-5.27,1.54h-16.09v-21.4H501.67L501.67,299.21z M500.99,315.06c0.28,0,0.45-0.16,0.45-0.42v-9.43
	c0-0.26-0.17-0.42-0.45-0.42h-8.27v10.27H500.99L500.99,315.06z"/>
<polygon class="st6" points="456.06,299.17 463.14,299.19 471.87,310.18 471.87,299.17 479.01,299.17 479.02,320.6 471.9,320.6 
	463.18,309.27 463.16,320.6 456.07,320.6 456.06,299.17 "/>
<polygon class="st4" points="412.96,345.92 412.95,343.91 377.93,343.88 377.93,345.96 395.48,349.87 412.96,345.92 "/>
<path class="st3" d="M362.75,332.77v-0.03c0-3.17,2.44-5.66,5.74-5.66c2.22,0,3.65,0.93,4.62,2.27l-2.27,1.76
	c-0.62-0.78-1.34-1.27-2.38-1.27c-1.52,0-2.6,1.29-2.6,2.88v0.03c0,1.63,1.07,2.91,2.6,2.91c1.13,0,1.8-0.53,2.46-1.32l2.27,1.62
	c-1.03,1.41-2.41,2.46-4.82,2.46C365.25,338.4,362.75,336.02,362.75,332.77z"/>
<path class="st3" d="M377.19,327.3h5.15c1.66,0,2.81,0.44,3.54,1.18c0.64,0.62,0.96,1.46,0.96,2.53v0.03c0,1.66-0.89,2.77-2.24,3.34
	l2.6,3.79h-3.48l-2.19-3.29h-0.03h-1.29v3.29h-3.02V327.3z M382.19,332.52c1.03,0,1.62-0.5,1.62-1.29v-0.03
	c0-0.86-0.62-1.29-1.63-1.29h-1.97v2.61H382.19z"/>
<path class="st3" d="M394.66,327.22h2.91l4.63,10.96h-3.24l-0.79-1.94h-4.2l-0.78,1.94h-3.17L394.66,327.22z M397.3,333.89
	l-1.21-3.09l-1.23,3.09H397.3z"/>
<path class="st3" d="M405.98,327.3h8.71v2.64h-5.69v1.85h5.15v2.5h-5.15v3.89h-3.02V327.3z"/>
<path class="st3" d="M421.43,329.94h-3.26v-2.64h9.55v2.64h-3.27v8.24h-3.02V329.94z"/>
<polygon class="st5" points="497.83,329.56 502.83,328.63 430.51,328.63 430.51,329.57 "/>
<polygon class="st5" points="480.86,333 488.41,331.48 430.51,331.5 430.51,332.99 "/>
<polygon class="st5" points="466.35,335.89 466.41,335.9 470.91,335.01 430.51,334.96 430.51,335.9 "/>
<polygon class="st5" points="288.13,328.62 293.13,329.55 359.82,329.56 359.82,328.62 "/>
<polygon class="st5" points="302.55,331.47 310.1,332.99 359.82,332.98 359.82,331.49 "/>
<polygon class="st5" points="320.05,335 324.55,335.89 324.62,335.88 359.82,335.89 359.82,334.96 "/>
</svg>
